<?xml version="1.0" encoding="UTF-8"?><svg id="Layer_2" xmlns="http://www.w3.org/2000/svg" xmlns:xlink="http://www.w3.org/1999/xlink" viewBox="0 0 663.23 198.02"><defs><style>.cls-1{fill:url(#linear-gradient-2);}.cls-2{fill:#fff;}.cls-3{fill:url(#linear-gradient-6);}.cls-4{fill:url(#linear-gradient-5);}.cls-5{fill:url(#linear-gradient-3);}.cls-6{fill:url(#linear-gradient);}.cls-7{fill:url(#linear-gradient-4);}</style><linearGradient id="linear-gradient" x1="76.74" y1="199.93" x2="265.57" y2="68.53" gradientUnits="userSpaceOnUse"><stop offset="0" stop-color="#f955ff"/><stop offset=".99" stop-color="#3f76ff"/></linearGradient><linearGradient id="linear-gradient-2" x1="3.96" y1="109.69" x2="213.59" y2="-36.19" gradientUnits="userSpaceOnUse"><stop offset="0" stop-color="#f955ff"/><stop offset="1" stop-color="#3f76ff"/></linearGradient><linearGradient id="linear-gradient-3" x1="85.78" y1="119.48" x2="258.58" y2="-.77" xlink:href="#linear-gradient"/><linearGradient id="linear-gradient-4" x1="102.19" y1="156.34" x2="272.92" y2="37.54" xlink:href="#linear-gradient"/><linearGradient id="linear-gradient-5" x1="29.61" y1="240.65" x2="236.25" y2="96.86" xlink:href="#linear-gradient"/><linearGradient id="linear-gradient-6" x1="120.58" y1="62.01" x2="239.08" y2="-20.45" xlink:href="#linear-gradient"/></defs><g id="Layer_1-2"><g><path class="cls-2" d="M322.29,143.18V14.27h35.45c9.28,0,16.26,2.58,20.95,7.73,4.69,5.15,7.03,12.68,7.03,22.6v60.35c0,12.21-2.14,21.63-6.41,28.27-4.27,6.64-11.76,9.96-22.45,9.96h-34.57Zm25.93-22.78h4.47c4.73,0,7.1-2.29,7.1-6.88V47.01c0-4.3-.57-7.07-1.72-8.31-1.15-1.25-3.48-1.87-6.99-1.87h-2.86V120.4Z"/><path class="cls-2" d="M441.53,143.18l-13.84-128.91h25.2l7.1,81.37,7.25-81.37h24.02l6.88,81.37,6.88-81.37h25.49l-14.06,128.91h-30.91l-6.45-62.04-6.15,62.04h-31.42Z"/><path class="cls-2" d="M538.21,143.18V14.27h51.56v24.9h-25.34v25.12h24.32v24.24h-24.32v29.52h27.03v25.12h-53.25Z"/><path class="cls-2" d="M599.95,143.18V14.27h34.94c9.38,0,16.2,2.28,20.47,6.85,4.27,4.57,6.41,12.1,6.41,22.6v5.64c0,6.06-1.09,10.96-3.26,14.72-2.17,3.76-5.48,6.23-9.92,7.4,5.81,1.46,9.71,4.9,11.68,10.29,1.98,5.4,2.97,11.98,2.97,19.74,0,8.35-.78,15.65-2.34,21.9-1.56,6.25-4.39,11.11-8.5,14.58-4.1,3.47-9.94,5.2-17.51,5.2h-34.94Zm25.2-80.35h5.27c2.39,0,3.93-.93,4.61-2.78,.68-1.85,1.03-4.08,1.03-6.67v-12.96c0-4.15-1.83-6.23-5.49-6.23h-5.42v28.64Zm2.56,57.64c6.69,0,10.04-3.17,10.04-9.52v-16.11c0-3.66-.55-6.56-1.65-8.68-1.1-2.12-3.16-3.19-6.19-3.19h-4.76v37.35c1.07,.1,1.93,.15,2.56,.15Z"/></g><path class="cls-2" d="M321.89,164.24h5.39l12.14,14.9v-11.46c0-1.22-.14-1.98-.41-2.29-.36-.41-.93-.62-1.71-.62h-.69v-.54h6.91v.54h-.7c-.84,0-1.44,.25-1.79,.76-.21,.31-.32,1.03-.32,2.14v16.74h-.53l-13.1-16v12.23c0,1.22,.13,1.98,.4,2.29,.37,.41,.94,.62,1.71,.62h.7v.54h-6.91v-.54h.69c.85,0,1.45-.25,1.8-.76,.21-.31,.32-1.03,.32-2.14v-13.81c-.58-.67-1.01-1.12-1.31-1.33-.3-.21-.73-.42-1.31-.6-.28-.09-.71-.13-1.29-.13v-.54Zm25.25,11.5c0,1.99,.47,3.55,1.45,4.69s2.12,1.7,3.44,1.7c.88,0,1.64-.24,2.29-.73,.65-.48,1.19-1.31,1.63-2.48l.45,.29c-.21,1.34-.8,2.56-1.79,3.65-.99,1.1-2.22,1.65-3.71,1.65-1.61,0-2.99-.63-4.14-1.88-1.15-1.25-1.72-2.94-1.72-5.06,0-2.29,.59-4.08,1.77-5.37,1.18-1.28,2.65-1.93,4.43-1.93,1.5,0,2.74,.5,3.71,1.49,.97,.99,1.45,2.32,1.45,3.98h-9.27Zm0-.85h6.21c-.05-.86-.15-1.46-.31-1.82-.24-.55-.61-.98-1.09-1.29-.48-.31-.99-.47-1.52-.47-.81,0-1.54,.32-2.17,.94-.64,.63-1.01,1.51-1.12,2.63Zm13.31,.85c0,1.99,.47,3.55,1.45,4.69s2.12,1.7,3.44,1.7c.88,0,1.64-.24,2.29-.73,.65-.48,1.19-1.31,1.63-2.48l.46,.29c-.21,1.34-.8,2.56-1.79,3.65-.99,1.1-2.22,1.65-3.71,1.65-1.61,0-2.99-.63-4.14-1.88-1.15-1.25-1.72-2.94-1.72-5.06,0-2.29,.59-4.08,1.77-5.37,1.18-1.28,2.65-1.93,4.43-1.93,1.5,0,2.74,.5,3.71,1.49,.97,.99,1.45,2.32,1.45,3.98h-9.27Zm0-.85h6.21c-.05-.86-.15-1.46-.31-1.82-.24-.55-.61-.98-1.09-1.29-.48-.31-.99-.47-1.52-.47-.81,0-1.54,.32-2.18,.94-.64,.63-1.01,1.51-1.12,2.63Zm20.54,7.71c-.65,.68-1.29,1.17-1.92,1.47-.62,.3-1.3,.45-2.02,.45-1.46,0-2.74-.61-3.84-1.84s-1.64-2.8-1.64-4.72,.61-3.68,1.82-5.28c1.21-1.6,2.77-2.39,4.67-2.39,1.18,0,2.16,.38,2.93,1.13v-2.48c0-1.53-.04-2.48-.11-2.83-.07-.35-.19-.59-.34-.72s-.35-.19-.59-.19c-.25,0-.59,.08-1.01,.23l-.19-.51,4-1.64h.66v15.51c0,1.57,.04,2.53,.11,2.88,.07,.35,.19,.59,.35,.73,.16,.14,.35,.21,.56,.21,.26,0,.62-.08,1.05-.25l.16,.51-3.98,1.66h-.67v-1.92Zm0-1.03v-6.91c-.06-.66-.23-1.27-.53-1.82s-.68-.96-1.16-1.24c-.48-.28-.96-.42-1.41-.42-.86,0-1.62,.39-2.3,1.16-.89,1.02-1.33,2.5-1.33,4.45s.43,3.48,1.29,4.53,1.82,1.57,2.87,1.57c.89,0,1.75-.44,2.58-1.33Zm39.62-17.33v.54c-.52,0-.94,.09-1.26,.28s-.63,.53-.92,1.04c-.2,.34-.5,1.16-.92,2.45l-5.54,16.01h-.59l-4.53-12.7-4.5,12.7h-.53l-5.9-16.49c-.44-1.23-.72-1.96-.83-2.18-.2-.37-.46-.65-.8-.83-.34-.18-.79-.27-1.37-.27v-.54h7.35v.54h-.35c-.52,0-.91,.12-1.19,.35s-.41,.52-.41,.85,.21,1.13,.64,2.36l3.91,11.15,3.29-9.48-.59-1.67-.47-1.33c-.21-.49-.43-.92-.69-1.29-.13-.19-.28-.34-.47-.47-.24-.18-.49-.3-.73-.38-.19-.06-.48-.09-.88-.09v-.54h7.73v.54h-.53c-.55,0-.95,.12-1.2,.35s-.38,.55-.38,.95c0,.5,.22,1.37,.66,2.61l3.81,10.8,3.78-10.94c.43-1.21,.64-2.05,.64-2.52,0-.22-.07-.43-.21-.63-.14-.2-.32-.33-.53-.41-.37-.14-.86-.21-1.45-.21v-.54h5.93Zm1.03,11.5c0,1.99,.47,3.55,1.45,4.69s2.12,1.7,3.44,1.7c.88,0,1.64-.24,2.29-.73,.65-.48,1.19-1.31,1.63-2.48l.45,.29c-.21,1.34-.8,2.56-1.79,3.65-.99,1.1-2.22,1.65-3.71,1.65-1.61,0-2.99-.63-4.14-1.88-1.15-1.25-1.72-2.94-1.72-5.06,0-2.29,.59-4.08,1.77-5.37,1.18-1.28,2.65-1.93,4.43-1.93,1.5,0,2.74,.5,3.71,1.49,.97,.99,1.45,2.32,1.45,3.98h-9.27Zm0-.85h6.21c-.05-.86-.15-1.46-.31-1.82-.24-.55-.61-.98-1.09-1.29-.48-.31-.99-.47-1.52-.47-.81,0-1.54,.32-2.17,.94-.64,.63-1.01,1.51-1.12,2.63Zm14.74-1.89c1.3-1.81,2.7-2.71,4.2-2.71,1.38,0,2.58,.59,3.6,1.76,1.03,1.18,1.54,2.79,1.54,4.83,0,2.38-.79,4.3-2.37,5.76-1.36,1.25-2.87,1.88-4.54,1.88-.78,0-1.58-.14-2.38-.42-.81-.28-1.63-.71-2.47-1.27v-13.9c0-1.52-.04-2.46-.11-2.81-.07-.35-.19-.59-.34-.72s-.35-.19-.59-.19c-.27,0-.62,.08-1.03,.23l-.21-.51,4.03-1.64h.66v9.73Zm0,.94v8.03c.5,.49,1.01,.86,1.54,1.11,.53,.25,1.08,.37,1.63,.37,.89,0,1.72-.49,2.48-1.46,.77-.98,1.15-2.4,1.15-4.26,0-1.72-.38-3.04-1.15-3.96-.77-.92-1.64-1.38-2.61-1.38-.52,0-1.04,.13-1.55,.4-.39,.2-.89,.59-1.49,1.17Zm19.99-3.65v4.57h-.48c-.37-1.44-.85-2.41-1.43-2.93-.58-.52-1.32-.78-2.22-.78-.68,0-1.23,.18-1.65,.54s-.63,.76-.63,1.2c0,.55,.16,1.02,.47,1.41,.3,.4,.92,.83,1.85,1.27l2.14,1.04c1.98,.97,2.97,2.24,2.97,3.82,0,1.22-.46,2.21-1.38,2.95-.92,.75-1.96,1.12-3.1,1.12-.82,0-1.76-.15-2.81-.44-.32-.1-.59-.15-.79-.15-.22,0-.4,.13-.53,.38h-.48v-4.79h.48c.27,1.37,.79,2.4,1.57,3.09s1.64,1.04,2.59,1.04c.67,0,1.22-.2,1.65-.59,.43-.4,.64-.87,.64-1.43,0-.67-.24-1.24-.71-1.7-.47-.46-1.42-1.04-2.83-1.74s-2.34-1.34-2.78-1.9c-.44-.56-.66-1.26-.66-2.11,0-1.1,.38-2.03,1.13-2.77,.76-.74,1.74-1.11,2.94-1.11,.53,0,1.17,.11,1.92,.34,.5,.15,.83,.22,1,.22,.16,0,.28-.03,.37-.1s.19-.22,.31-.45h.48Zm7.63,0v10.78c0,.84,.06,1.4,.18,1.68,.12,.28,.3,.49,.54,.62,.24,.14,.68,.21,1.31,.21v.53h-6.52v-.53c.65,0,1.09-.06,1.32-.19s.4-.34,.54-.63c.13-.29,.2-.85,.2-1.68v-5.17c0-1.46-.04-2.4-.13-2.83-.07-.31-.18-.53-.32-.65s-.35-.18-.6-.18c-.27,0-.61,.07-1,.22l-.21-.53,4.04-1.64h.64Zm-1.22-7.02c.41,0,.76,.14,1.05,.43,.29,.29,.43,.64,.43,1.05s-.14,.76-.43,1.05c-.29,.29-.64,.44-1.05,.44s-.76-.15-1.05-.44-.44-.64-.44-1.05,.14-.76,.43-1.05,.64-.43,1.06-.43Zm8.82,3v4.41h3.13v1.03h-3.13v8.7c0,.87,.12,1.46,.37,1.76,.25,.3,.57,.45,.96,.45,.32,0,.63-.1,.94-.3s.54-.5,.7-.89h.57c-.34,.96-.82,1.68-1.45,2.16-.62,.48-1.27,.73-1.93,.73-.45,0-.89-.12-1.32-.37-.43-.25-.75-.6-.95-1.07s-.31-1.18-.31-2.15v-9.02h-2.12v-.48c.54-.21,1.09-.58,1.65-1.09,.56-.51,1.06-1.12,1.5-1.82,.22-.37,.54-1.05,.94-2.04h.45Zm6.7,9.46c0,1.99,.47,3.55,1.45,4.69s2.12,1.7,3.44,1.7c.88,0,1.64-.24,2.29-.73,.65-.48,1.19-1.31,1.63-2.48l.45,.29c-.21,1.34-.8,2.56-1.79,3.65-.99,1.1-2.22,1.65-3.71,1.65-1.61,0-2.99-.63-4.14-1.88-1.15-1.25-1.72-2.94-1.72-5.06,0-2.29,.59-4.08,1.77-5.37,1.18-1.28,2.65-1.93,4.43-1.93,1.5,0,2.74,.5,3.71,1.49,.97,.99,1.45,2.32,1.45,3.98h-9.27Zm0-.85h6.21c-.05-.86-.15-1.46-.31-1.82-.24-.55-.61-.98-1.09-1.29-.48-.31-.99-.47-1.52-.47-.81,0-1.54,.32-2.17,.94-.64,.63-1.01,1.51-1.12,2.63Zm16.77,4.53h-.6c.07-1.23,.22-2.25,.46-3.05,.24-.8,.73-1.93,1.49-3.36,.59-1.1,.97-1.95,1.14-2.54s.26-1.19,.26-1.79c0-1.24-.33-2.23-.99-2.96-.66-.73-1.47-1.1-2.42-1.1-.85,0-1.52,.2-2.01,.6s-.73,.83-.73,1.3c0,.36,.15,.81,.44,1.33s.44,.93,.44,1.2c0,.35-.11,.65-.34,.89s-.5,.36-.82,.36c-.41,0-.79-.2-1.12-.61-.34-.4-.51-.97-.51-1.69,0-1.1,.47-2.08,1.42-2.93s2.23-1.27,3.85-1.27c2.01,0,3.49,.59,4.44,1.76,.7,.86,1.05,1.81,1.05,2.86,0,.71-.16,1.45-.48,2.2-.32,.75-.92,1.64-1.81,2.65-1.42,1.6-2.28,2.74-2.6,3.41-.32,.67-.51,1.59-.58,2.76Zm-.21,1.82c.46,0,.85,.16,1.16,.48,.32,.32,.48,.71,.48,1.16s-.16,.83-.48,1.15c-.32,.32-.71,.48-1.16,.48s-.83-.16-1.15-.48c-.32-.32-.47-.7-.47-1.15s.16-.85,.47-1.16c.32-.32,.7-.48,1.15-.48Zm41.91-16.99v.54c-.52,0-.94,.09-1.26,.28s-.63,.53-.92,1.04c-.2,.34-.5,1.16-.92,2.45l-5.54,16.01h-.59l-4.53-12.7-4.5,12.7h-.53l-5.9-16.49c-.44-1.23-.72-1.96-.83-2.18-.2-.37-.46-.65-.8-.83-.34-.18-.79-.27-1.37-.27v-.54h7.35v.54h-.35c-.52,0-.91,.12-1.19,.35s-.41,.52-.41,.85,.21,1.13,.64,2.36l3.91,11.15,3.29-9.48-.59-1.67-.47-1.33c-.21-.49-.43-.92-.69-1.29-.13-.19-.28-.34-.47-.47-.24-.18-.49-.3-.73-.38-.19-.06-.48-.09-.88-.09v-.54h7.73v.54h-.53c-.55,0-.95,.12-1.2,.35s-.38,.55-.38,.95c0,.5,.22,1.37,.66,2.61l3.81,10.8,3.78-10.94c.43-1.21,.64-2.05,.64-2.52,0-.22-.07-.43-.21-.63-.14-.2-.32-.33-.53-.41-.37-.14-.86-.21-1.45-.21v-.54h5.93Zm1.03,11.5c0,1.99,.47,3.55,1.45,4.69s2.12,1.7,3.44,1.7c.88,0,1.64-.24,2.29-.73,.65-.48,1.19-1.31,1.63-2.48l.45,.29c-.21,1.34-.8,2.56-1.79,3.65-.99,1.1-2.22,1.65-3.71,1.65-1.61,0-2.99-.63-4.14-1.88-1.15-1.25-1.72-2.94-1.72-5.06,0-2.29,.59-4.08,1.77-5.37,1.18-1.28,2.65-1.93,4.43-1.93,1.5,0,2.74,.5,3.71,1.49,.97,.99,1.45,2.32,1.45,3.98h-9.27Zm0-.85h6.21c-.05-.86-.15-1.46-.31-1.82-.24-.55-.61-.98-1.09-1.29-.48-.31-.99-.47-1.52-.47-.81,0-1.54,.32-2.17,.94-.64,.63-1.01,1.51-1.12,2.63Zm36.04-11.1l.51,6.27h-.51c-.52-1.56-1.19-2.74-2.01-3.53-1.18-1.14-2.7-1.71-4.55-1.71-2.53,0-4.45,1-5.77,3-1.1,1.69-1.66,3.7-1.66,6.04,0,1.89,.37,3.62,1.1,5.19s1.69,2.71,2.88,3.44c1.19,.73,2.41,1.09,3.66,1.09,.73,0,1.44-.09,2.12-.28s1.34-.46,1.98-.82v-5.74c0-1-.08-1.65-.23-1.96-.15-.31-.38-.54-.7-.7-.32-.16-.88-.24-1.68-.24v-.56h7.69v.56h-.37c-.76,0-1.29,.25-1.57,.76-.2,.36-.29,1.07-.29,2.14v6.08c-1.12,.61-2.23,1.05-3.32,1.33s-2.31,.42-3.65,.42c-3.84,0-6.75-1.23-8.74-3.69-1.49-1.85-2.24-3.97-2.24-6.39,0-1.75,.42-3.42,1.26-5.02,1-1.9,2.36-3.37,4.1-4.39,1.46-.85,3.17-1.27,5.16-1.27,.72,0,1.38,.06,1.97,.18,.59,.12,1.43,.38,2.51,.78,.55,.21,.91,.31,1.1,.31s.34-.08,.47-.26c.13-.17,.21-.5,.24-1h.54Zm10.75,6.5c2.03,0,3.66,.77,4.89,2.31,1.04,1.32,1.57,2.83,1.57,4.54,0,1.2-.29,2.42-.86,3.65s-1.37,2.16-2.38,2.78c-1.01,.62-2.14,.94-3.38,.94-2.02,0-3.63-.81-4.82-2.42-1.01-1.36-1.51-2.88-1.51-4.57,0-1.23,.3-2.45,.92-3.67,.61-1.22,1.41-2.11,2.41-2.7s2.05-.87,3.16-.87Zm-.46,.95c-.52,0-1.04,.15-1.56,.46-.52,.31-.95,.85-1.27,1.62s-.48,1.76-.48,2.97c0,1.95,.39,3.64,1.17,5.05,.78,1.42,1.8,2.12,3.07,2.12,.95,0,1.73-.39,2.34-1.17s.92-2.12,.92-4.03c0-2.38-.51-4.26-1.54-5.62-.69-.94-1.58-1.41-2.65-1.41Zm12.79-4.97v4.41h3.13v1.03h-3.13v8.7c0,.87,.12,1.46,.37,1.76,.25,.3,.57,.45,.96,.45,.32,0,.63-.1,.94-.3s.54-.5,.7-.89h.57c-.34,.96-.83,1.68-1.45,2.16-.62,.48-1.27,.73-1.93,.73-.45,0-.89-.12-1.32-.37-.43-.25-.75-.6-.95-1.07s-.31-1.18-.31-2.15v-9.02h-2.12v-.48c.54-.21,1.09-.58,1.65-1.09,.56-.51,1.06-1.12,1.5-1.82,.22-.37,.54-1.05,.94-2.04h.46Zm24.18-2.04h6.93v.54h-.38c-.25,0-.62,.11-1.11,.34s-.93,.55-1.33,.97-.89,1.1-1.48,2.05l-4.79,7.54v4.98c0,1.22,.14,1.98,.41,2.29,.37,.41,.96,.62,1.76,.62h.64v.54h-8.44v-.54h.7c.84,0,1.44-.25,1.79-.76,.21-.31,.32-1.03,.32-2.14v-4.7l-5.45-8.32c-.64-.98-1.08-1.59-1.31-1.83-.23-.24-.71-.54-1.43-.88-.2-.1-.48-.15-.85-.15v-.54h8.5v.54h-.44c-.46,0-.88,.11-1.27,.32-.39,.21-.58,.54-.58,.97,0,.35,.3,.99,.89,1.9l4.15,6.4,3.9-6.12c.59-.92,.88-1.6,.88-2.05,0-.27-.07-.52-.21-.73-.14-.21-.34-.38-.61-.51-.26-.12-.66-.18-1.19-.18v-.54Zm11.87,6.05c2.03,0,3.66,.77,4.89,2.31,1.04,1.32,1.57,2.83,1.57,4.54,0,1.2-.29,2.42-.87,3.65s-1.37,2.16-2.38,2.78c-1.01,.62-2.13,.94-3.38,.94-2.02,0-3.63-.81-4.82-2.42-1.01-1.36-1.51-2.88-1.51-4.57,0-1.23,.3-2.45,.91-3.67,.61-1.22,1.41-2.11,2.41-2.7s2.05-.87,3.16-.87Zm-.45,.95c-.52,0-1.04,.15-1.56,.46-.52,.31-.95,.85-1.27,1.62s-.48,1.76-.48,2.97c0,1.95,.39,3.64,1.16,5.05,.78,1.42,1.8,2.12,3.07,2.12,.95,0,1.73-.39,2.34-1.17s.92-2.12,.92-4.03c0-2.38-.51-4.26-1.54-5.62-.69-.94-1.58-1.41-2.65-1.41Zm20.65-.56v8.13c0,1.55,.04,2.5,.11,2.85,.07,.35,.19,.59,.35,.73,.16,.14,.35,.21,.56,.21,.3,0,.64-.08,1.03-.25l.21,.51-4.01,1.66h-.66v-2.84c-1.15,1.25-2.03,2.04-2.64,2.36s-1.24,.48-1.92,.48c-.75,0-1.4-.22-1.96-.65-.55-.43-.93-.99-1.15-1.68s-.32-1.65-.32-2.9v-5.99c0-.63-.07-1.07-.21-1.32s-.34-.43-.61-.56c-.27-.13-.75-.19-1.46-.18v-.54h4.7v8.98c0,1.25,.22,2.07,.65,2.46,.44,.39,.96,.59,1.58,.59,.42,0,.89-.13,1.43-.4,.53-.26,1.16-.77,1.9-1.51v-7.6c0-.76-.14-1.28-.42-1.54-.28-.27-.86-.41-1.73-.43v-.54h4.57Z"/><g><path class="cls-6" d="M98.04,137.66h-14.89l-8.21-14.21h-19.3l-9.65,16.71,9.65,16.71h19.3l8.21-14.21h14.89l8.21,14.21h163.37c7.23-9.92,12.69-21.22,15.89-33.43H106.25l-8.21,14.21Z"/><polygon class="cls-1" points="0 99.01 9.65 115.73 28.95 115.73 38.6 99.01 28.95 82.3 9.65 82.3 0 99.01"/><path class="cls-5" d="M90.16,60.36h7.89l8.21,14.21h179.75c-2.92-12.16-8.06-23.45-14.97-33.43H106.25l-8.21,14.21h-7.89l-8.21-14.21h-19.3l-9.65,16.71,9.65,16.71h19.3l8.21-14.21Z"/><path class="cls-7" d="M154.15,82.3l-8.21,14.21h-12.19l-8.21-14.21h-43.6l-9.65,16.71,9.65,16.71h43.6l8.21-14.21h12.19l8.21,14.21h133.06c1.03-5.75,1.56-11.66,1.56-17.7,0-5.35-.43-10.6-1.23-15.73H154.15Z"/><path class="cls-4" d="M263.39,164.59H86.95l-8.21,14.21h-10.06l-8.21-14.21H9.65L0,181.31l9.65,16.71H60.47l8.21-14.21h10.06l8.21,14.21h101.82c29.66,0,56.3-12.92,74.61-33.43Z"/><path class="cls-3" d="M106.25,33.43h19.3l8.21-14.21h12.19l8.21,14.21h110.96C250.84,16.59,231.11,4.53,208.65,0h-54.5l-8.21,14.21h-12.19L125.55,0h-19.3l-9.65,16.71,9.65,16.71Z"/></g></g></svg>